<mxfile host="app.diagrams.net" modified="2023-11-26T09:21:09.333Z" agent="Mozilla/5.0 (Windows NT 10.0; Win64; x64) AppleWebKit/537.36 (KHTML, like Gecko) Chrome/119.0.0.0 Safari/537.36 Edg/119.0.0.0" etag="-Y6e7yd-RWVoxj_3Pkf3" version="22.1.4" type="github">
  <diagram name="第 1 页" id="iLWCz3QjieAHFcFD0rI2">
    <mxGraphModel dx="835" dy="481" grid="1" gridSize="10" guides="1" tooltips="1" connect="1" arrows="1" fold="1" page="1" pageScale="1" pageWidth="827" pageHeight="1169" math="0" shadow="0">
      <root>
        <mxCell id="0" />
        <mxCell id="1" parent="0" />
        <mxCell id="EM9w75lHz8M5d3z3ahbe-24" value="" style="rounded=0;whiteSpace=wrap;html=1;" vertex="1" parent="1">
          <mxGeometry x="387" y="80" width="343" height="280" as="geometry" />
        </mxCell>
        <mxCell id="EM9w75lHz8M5d3z3ahbe-1" value="" style="rounded=1;whiteSpace=wrap;html=1;dashed=1;" vertex="1" parent="1">
          <mxGeometry x="150" y="161" width="200" height="130" as="geometry" />
        </mxCell>
        <mxCell id="EM9w75lHz8M5d3z3ahbe-2" value="&lt;font style=&quot;font-size: 20px;&quot;&gt;查询队列&lt;/font&gt;" style="text;html=1;strokeColor=none;fillColor=none;align=center;verticalAlign=middle;whiteSpace=wrap;rounded=0;" vertex="1" parent="1">
          <mxGeometry x="200" y="161" width="100" height="30" as="geometry" />
        </mxCell>
        <mxCell id="EM9w75lHz8M5d3z3ahbe-7" value="" style="group;fillColor=#dae8fc;strokeColor=none;" vertex="1" connectable="0" parent="1">
          <mxGeometry x="170" y="196" width="160" height="40" as="geometry" />
        </mxCell>
        <mxCell id="EM9w75lHz8M5d3z3ahbe-4" value="" style="rounded=0;whiteSpace=wrap;html=1;fillColor=#dae8fc;strokeColor=none;" vertex="1" parent="EM9w75lHz8M5d3z3ahbe-7">
          <mxGeometry width="160" height="40" as="geometry" />
        </mxCell>
        <mxCell id="EM9w75lHz8M5d3z3ahbe-5" value="&lt;font style=&quot;font-size: 16px;&quot;&gt;查询0&lt;/font&gt;" style="text;html=1;strokeColor=none;fillColor=none;align=center;verticalAlign=middle;whiteSpace=wrap;rounded=0;" vertex="1" parent="EM9w75lHz8M5d3z3ahbe-7">
          <mxGeometry y="5" width="60" height="30" as="geometry" />
        </mxCell>
        <mxCell id="EM9w75lHz8M5d3z3ahbe-6" value="&lt;font style=&quot;font-size: 14px;&quot;&gt;&amp;lt;任务序号&amp;gt;&lt;br&gt;&amp;lt;输入数据&amp;gt;&lt;/font&gt;" style="text;html=1;strokeColor=none;fillColor=none;align=center;verticalAlign=middle;whiteSpace=wrap;rounded=0;" vertex="1" parent="EM9w75lHz8M5d3z3ahbe-7">
          <mxGeometry x="50" y="5" width="110" height="30" as="geometry" />
        </mxCell>
        <mxCell id="EM9w75lHz8M5d3z3ahbe-8" value="" style="group;fillColor=#dae8fc;strokeColor=none;" vertex="1" connectable="0" parent="1">
          <mxGeometry x="170" y="241" width="160" height="40" as="geometry" />
        </mxCell>
        <mxCell id="EM9w75lHz8M5d3z3ahbe-9" value="" style="rounded=0;whiteSpace=wrap;html=1;fillColor=#f8cecc;strokeColor=none;" vertex="1" parent="EM9w75lHz8M5d3z3ahbe-8">
          <mxGeometry width="160" height="40" as="geometry" />
        </mxCell>
        <mxCell id="EM9w75lHz8M5d3z3ahbe-10" value="&lt;font style=&quot;font-size: 16px;&quot;&gt;查询1&lt;/font&gt;" style="text;html=1;strokeColor=none;fillColor=none;align=center;verticalAlign=middle;whiteSpace=wrap;rounded=0;" vertex="1" parent="EM9w75lHz8M5d3z3ahbe-8">
          <mxGeometry y="5" width="60" height="30" as="geometry" />
        </mxCell>
        <mxCell id="EM9w75lHz8M5d3z3ahbe-11" value="&lt;font style=&quot;font-size: 14px;&quot;&gt;&amp;lt;任务序号&amp;gt;&lt;br&gt;&amp;lt;输入数据&amp;gt;&lt;/font&gt;" style="text;html=1;strokeColor=none;fillColor=none;align=center;verticalAlign=middle;whiteSpace=wrap;rounded=0;" vertex="1" parent="EM9w75lHz8M5d3z3ahbe-8">
          <mxGeometry x="50" y="5" width="110" height="30" as="geometry" />
        </mxCell>
        <mxCell id="EM9w75lHz8M5d3z3ahbe-12" value="" style="rounded=0;whiteSpace=wrap;html=1;" vertex="1" parent="1">
          <mxGeometry x="414" y="115" width="276" height="120" as="geometry" />
        </mxCell>
        <mxCell id="EM9w75lHz8M5d3z3ahbe-13" value="&lt;font style=&quot;font-size: 20px;&quot;&gt;推理流水线&lt;/font&gt;" style="text;html=1;strokeColor=none;fillColor=none;align=center;verticalAlign=middle;whiteSpace=wrap;rounded=0;" vertex="1" parent="1">
          <mxGeometry x="497" y="115" width="110" height="30" as="geometry" />
        </mxCell>
        <mxCell id="EM9w75lHz8M5d3z3ahbe-14" value="&lt;font style=&quot;font-size: 16px;&quot;&gt;预处理&lt;/font&gt;" style="rounded=0;whiteSpace=wrap;html=1;fillColor=#f5f5f5;fontColor=#333333;strokeColor=#666666;" vertex="1" parent="1">
          <mxGeometry x="424" y="155" width="70" height="50" as="geometry" />
        </mxCell>
        <mxCell id="EM9w75lHz8M5d3z3ahbe-15" value="&lt;font style=&quot;font-size: 16px;&quot;&gt;批处理调度&lt;/font&gt;" style="rounded=0;whiteSpace=wrap;html=1;fillColor=#ffe6cc;strokeColor=#d79b00;" vertex="1" parent="1">
          <mxGeometry x="507" y="155" width="90" height="50" as="geometry" />
        </mxCell>
        <mxCell id="EM9w75lHz8M5d3z3ahbe-16" value="&lt;font style=&quot;font-size: 16px;&quot;&gt;模型推理&lt;/font&gt;" style="rounded=0;whiteSpace=wrap;html=1;fillColor=#dae8fc;strokeColor=#6c8ebf;" vertex="1" parent="1">
          <mxGeometry x="610" y="155" width="70" height="50" as="geometry" />
        </mxCell>
        <mxCell id="EM9w75lHz8M5d3z3ahbe-31" style="edgeStyle=orthogonalEdgeStyle;rounded=0;orthogonalLoop=1;jettySize=auto;html=1;exitX=1;exitY=0.5;exitDx=0;exitDy=0;entryX=0;entryY=0.5;entryDx=0;entryDy=0;strokeWidth=4;endArrow=block;endFill=1;endSize=2;" edge="1" parent="1" source="EM9w75lHz8M5d3z3ahbe-17" target="EM9w75lHz8M5d3z3ahbe-22">
          <mxGeometry relative="1" as="geometry" />
        </mxCell>
        <mxCell id="EM9w75lHz8M5d3z3ahbe-17" value="" style="rounded=0;whiteSpace=wrap;html=1;fillColor=#f5f5f5;fontColor=#333333;strokeColor=#666666;" vertex="1" parent="1">
          <mxGeometry x="400" y="255" width="136" height="95" as="geometry" />
        </mxCell>
        <mxCell id="EM9w75lHz8M5d3z3ahbe-18" value="&lt;font style=&quot;font-size: 20px;&quot;&gt;任务管理器&lt;/font&gt;" style="text;html=1;strokeColor=none;fillColor=none;align=center;verticalAlign=middle;whiteSpace=wrap;rounded=0;" vertex="1" parent="1">
          <mxGeometry x="414" y="255" width="110" height="30" as="geometry" />
        </mxCell>
        <mxCell id="EM9w75lHz8M5d3z3ahbe-22" value="" style="rounded=0;whiteSpace=wrap;html=1;fillColor=#d5e8d4;strokeColor=#82b366;" vertex="1" parent="1">
          <mxGeometry x="570" y="255" width="136" height="95" as="geometry" />
        </mxCell>
        <mxCell id="EM9w75lHz8M5d3z3ahbe-23" value="&lt;font style=&quot;font-size: 20px;&quot;&gt;参数存储库&lt;/font&gt;" style="text;html=1;strokeColor=none;fillColor=none;align=center;verticalAlign=middle;whiteSpace=wrap;rounded=0;" vertex="1" parent="1">
          <mxGeometry x="583" y="255" width="110" height="30" as="geometry" />
        </mxCell>
        <mxCell id="EM9w75lHz8M5d3z3ahbe-25" value="&lt;font style=&quot;font-size: 20px;&quot;&gt;整体框架&lt;/font&gt;" style="text;html=1;strokeColor=none;fillColor=none;align=center;verticalAlign=middle;whiteSpace=wrap;rounded=0;" vertex="1" parent="1">
          <mxGeometry x="500" y="80" width="110" height="30" as="geometry" />
        </mxCell>
        <mxCell id="EM9w75lHz8M5d3z3ahbe-26" style="edgeStyle=orthogonalEdgeStyle;rounded=0;orthogonalLoop=1;jettySize=auto;html=1;entryX=0;entryY=0.522;entryDx=0;entryDy=0;entryPerimeter=0;strokeWidth=5;endArrow=block;endFill=1;endSize=2;" edge="1" parent="1" source="EM9w75lHz8M5d3z3ahbe-1" target="EM9w75lHz8M5d3z3ahbe-24">
          <mxGeometry relative="1" as="geometry" />
        </mxCell>
        <mxCell id="EM9w75lHz8M5d3z3ahbe-27" value="&lt;font style=&quot;font-size: 16px;&quot;&gt;任务注册器&lt;/font&gt;" style="rounded=0;whiteSpace=wrap;html=1;" vertex="1" parent="1">
          <mxGeometry x="420" y="285" width="96" height="25" as="geometry" />
        </mxCell>
        <mxCell id="EM9w75lHz8M5d3z3ahbe-28" value="&lt;font style=&quot;font-size: 16px;&quot;&gt;任务加载器&lt;/font&gt;" style="rounded=0;whiteSpace=wrap;html=1;" vertex="1" parent="1">
          <mxGeometry x="420" y="318" width="96" height="25" as="geometry" />
        </mxCell>
        <mxCell id="EM9w75lHz8M5d3z3ahbe-29" value="&lt;font style=&quot;font-size: 16px;&quot;&gt;共享模型&lt;/font&gt;" style="rounded=0;whiteSpace=wrap;html=1;" vertex="1" parent="1">
          <mxGeometry x="590" y="285" width="96" height="25" as="geometry" />
        </mxCell>
        <mxCell id="EM9w75lHz8M5d3z3ahbe-30" value="&lt;font style=&quot;font-size: 16px;&quot;&gt;参数&lt;/font&gt;" style="rounded=0;whiteSpace=wrap;html=1;" vertex="1" parent="1">
          <mxGeometry x="590" y="318" width="96" height="25" as="geometry" />
        </mxCell>
        <mxCell id="EM9w75lHz8M5d3z3ahbe-34" style="edgeStyle=orthogonalEdgeStyle;rounded=0;orthogonalLoop=1;jettySize=auto;html=1;strokeWidth=4;startArrow=block;startFill=1;endArrow=block;endFill=1;endSize=2;startSize=2;" edge="1" parent="1">
          <mxGeometry relative="1" as="geometry">
            <mxPoint x="468.71" y="260" as="sourcePoint" />
            <mxPoint x="468.71" y="210" as="targetPoint" />
            <Array as="points">
              <mxPoint x="468.71" y="250" />
              <mxPoint x="468.71" y="250" />
            </Array>
          </mxGeometry>
        </mxCell>
        <mxCell id="EM9w75lHz8M5d3z3ahbe-35" style="edgeStyle=orthogonalEdgeStyle;rounded=0;orthogonalLoop=1;jettySize=auto;html=1;entryX=0.812;entryY=0.958;entryDx=0;entryDy=0;entryPerimeter=0;strokeWidth=4;endArrow=block;endFill=1;endSize=2;" edge="1" parent="1" source="EM9w75lHz8M5d3z3ahbe-23" target="EM9w75lHz8M5d3z3ahbe-12">
          <mxGeometry relative="1" as="geometry" />
        </mxCell>
        <mxCell id="EM9w75lHz8M5d3z3ahbe-37" style="edgeStyle=orthogonalEdgeStyle;rounded=0;orthogonalLoop=1;jettySize=auto;html=1;strokeWidth=2;endArrow=block;endFill=1;endSize=2;" edge="1" parent="1">
          <mxGeometry relative="1" as="geometry">
            <mxPoint x="591" y="180" as="sourcePoint" />
            <mxPoint x="614" y="180" as="targetPoint" />
          </mxGeometry>
        </mxCell>
        <mxCell id="EM9w75lHz8M5d3z3ahbe-38" style="edgeStyle=orthogonalEdgeStyle;rounded=0;orthogonalLoop=1;jettySize=auto;html=1;strokeWidth=2;endArrow=block;endFill=1;endSize=2;" edge="1" parent="1">
          <mxGeometry relative="1" as="geometry">
            <mxPoint x="487" y="179.96" as="sourcePoint" />
            <mxPoint x="510" y="179.96" as="targetPoint" />
          </mxGeometry>
        </mxCell>
      </root>
    </mxGraphModel>
  </diagram>
</mxfile>
